<svg width="148" height="91" viewBox="0 0 148 91" fill="none" xmlns="http://www.w3.org/2000/svg">
<path fill-rule="evenodd" clip-rule="evenodd" d="M58.6833 62.5425C58.3739 63.5614 57.0453 64.637 55.6418 63.6577C54.6247 62.9479 54.9075 61.2289 56.8038 61.5259C56.8984 61.7825 56.999 61.984 56.9921 62.2818C56.9674 63.3696 56.9684 62.7424 56.7013 63.0337C55.7936 62.5465 56.6442 62.8443 56.042 62.1402C55.8084 62.672 55.833 63.3712 56.6905 63.3696C57.5765 63.3672 57.2739 62.7173 58.6824 62.5433L58.6833 62.5425ZM53.7869 66.8158C53.5622 67.0578 53.8924 67.8121 51.6886 67.685C51.2914 67.2609 50.8745 67.2763 50.6714 66.8651C50.4103 66.3375 50.7227 65.902 50.7148 65.3355C49.5804 64.4533 42.9316 62.9504 40.8303 62.608C32.6824 61.2807 24.839 62.2284 17.0616 64.2073C12.6166 65.3379 10.2512 66.6806 7.34959 67.5102L8.08878 60.2528C11.5847 59.3059 16.5974 58.5613 20.4817 58.1259C33.3447 56.6845 43.4184 58.7264 53.7396 64.3675C54.5892 64.8321 55.1401 65.3662 55.8596 65.8826L54.878 67.0999L53.7879 66.8166L53.7869 66.8158ZM76.6872 47.721C76.702 48.9172 74.994 49.0758 74.1217 48.3134C73.1637 47.4758 73.5274 46.0651 75.2985 46.2747C75.4749 46.6235 75.5893 46.7927 75.4828 47.3358C75.4217 47.6482 75.3941 47.6239 75.2985 47.7785C74.4874 47.4426 75.0275 47.8715 74.6717 47.008C74.5731 47.1059 74.2232 46.9206 74.4686 47.6627C74.7811 48.6064 76.1925 47.7356 76.6872 47.7218V47.721ZM131.727 52.5204C130.795 52.5406 131.205 52.6119 131.02 52.7082C132.318 53.2439 133.559 55.4373 133.746 56.661C133.932 57.8701 133.487 57.9365 133.886 58.516L139.687 59.5592L140.563 66.8271C139.762 66.8053 136.606 65.3913 135.457 65.0255C125.418 61.8302 114.091 60.2326 103.524 62.9641C96.7559 64.7139 95.8235 65.9733 93.059 66.9283C92.5721 66.5317 92.2587 66.2654 92.026 65.7094C94.2634 63.7953 99.3431 61.237 103.172 59.9582C107.513 58.5095 113.069 57.3594 118.325 57.3125C118.507 55.8096 118.742 54.8748 119.704 53.7692C120.28 53.1072 122.135 51.7928 123.087 51.9587C121.726 51.7442 122.875 51.9539 122.374 51.6366C119.678 51.8227 116.966 51.673 114.152 51.9409C103.124 52.9914 95.1041 56.2417 87.0991 61.8521C81.5758 65.7232 79.1374 69.7084 77.2323 71.3465C76.6084 54.9824 77.2599 38.1473 76.7996 21.9549C76.7227 19.2476 78.5116 16.6804 79.8993 14.5753C87.0084 3.78598 101.478 4.22626 113.994 8.03259C116.98 8.94067 119.679 9.92563 122.414 11.0733C126.963 12.9817 126.86 12.573 127.072 14.5793C127.154 15.3579 127.28 16.0321 127.37 16.7896L131.465 48.2277C131.563 48.9828 131.639 49.6788 131.73 50.4307C131.776 50.8184 131.857 51.1542 131.892 51.499C131.963 52.1918 132.05 52.0696 131.728 52.5196L131.727 52.5204ZM122.883 9.60432C122.804 9.96853 122.845 10.115 122.063 10.2324C120.938 10.4015 119.583 9.52663 120.253 8.29238C121.025 6.86633 123.364 8.09167 123.686 9.33319C122.43 9.08473 123.102 9.02241 122.302 8.56351C120.805 7.70561 120.331 9.37933 121.506 9.58085C122.635 9.77429 121.867 9.12762 122.883 9.60432ZM68.9986 7.12612C67.9982 7.78735 68.5837 8.40974 67.0767 9.71601C66.2902 10.3983 65.136 11.1777 64.0095 10.9349C65.9028 12.73 67.6956 14.9622 69.0735 17.6289C70.9757 21.3098 70.4553 22.8994 70.476 27.4478C70.5095 34.8023 70.6958 42.1649 70.6317 49.5024C71.4222 48.9909 71.3009 48.0083 72.8365 48.5125C73.35 48.6809 74.3277 49.3915 74.4282 50.0746C72.8651 50.0074 73.279 48.7456 71.9051 49.19C71.8647 50.3586 73.1933 49.9362 73.144 51.0563C71.9583 51.0118 72.2826 50.2518 70.6662 49.9524L70.7707 71.2404L66.3513 66.7162C61.647 62.1532 56.2864 58.6795 49.7243 55.9989C42.3432 52.9833 33.3269 51.8397 24.7306 52.1667C21.5845 52.2865 18.75 52.7891 15.7518 53.0181L20.2491 13.6081C27.6637 9.6804 41.329 5.0445 50.9257 5.93073C52.4583 6.07236 54.9302 6.61543 55.9335 6.61138C55.765 5.93639 55.9237 4.56861 56.246 3.76089C56.9034 2.11469 57.4346 2.23285 57.8564 1.29968C53.4242 0.748523 53.3532 0.122903 47.3017 0.260491C39.3627 0.440973 31.2877 2.70308 24.2664 5.43137C23.0344 5.90969 21.4426 6.74735 20.2195 7.02981C19.7247 7.45957 16.9453 8.67196 16.0416 9.14705C13.3923 10.5415 13.819 9.86493 13.4554 12.8822C13.0256 16.4522 12.5861 19.9979 12.2579 23.5549L5.7953 23.1988C5.53905 27.4924 4.9063 32.2497 4.39674 36.6525C4.11191 39.1104 2.74094 48.6445 3.08984 50.2971L2.90258 51.4585C5.49962 52.378 7.01251 53.0683 8.09273 55.6906C8.87923 57.6014 8.38742 59.1991 7.22934 60.766C6.75133 61.4118 6.5621 61.6465 5.71941 61.7614C5.84163 59.9582 7.66104 59.0752 6.73162 56.4837C6.25459 55.154 4.39477 53.3233 2.55368 53.354L2.65914 54.0751C2.93018 54.7105 4.10993 55.0868 4.76043 55.8516C5.4809 56.6998 5.77559 57.4379 5.69576 58.6649C5.56073 60.7433 3.76399 61.8893 1.59075 62.7893L0 77.5687C1.28226 77.0353 3.06225 75.8772 4.27157 75.1665C5.73715 74.3054 7.03025 73.649 8.74618 72.83C11.7513 71.395 15.0668 70.1948 18.7155 69.1726C35.2429 64.5423 49.6169 67.77 60.5934 78.132C61.6273 79.108 64.7517 82.0427 64.8522 83.3749C64.935 84.4651 65.0079 85.0543 65.4337 85.9826C68.5363 92.7543 79.9013 92.4435 82.9842 86.4229C84.9061 82.6708 81.558 83.8014 87.3593 78.1838C98.3989 67.4932 112.026 64.166 129.044 68.5971C132.564 69.5133 136.105 70.7872 139.148 72.1364C140.826 72.8802 142.117 73.5446 143.658 74.4381C145.023 75.2289 146.563 76.2227 148 76.8508L147.022 68.4466C146.544 64.3521 143.789 44.0701 144.104 42.9467L141.494 22.6533C139.967 22.4672 136.799 22.9754 135.033 23.0442C134.686 19.3496 134.059 15.4049 133.551 11.6722C133.217 9.21503 133.773 10.0446 130.243 8.2333C129.315 7.75741 126.176 6.16786 125.219 6.07074L125.732 6.45518C126.184 6.82586 126.047 6.55716 126.196 7.12451C124.609 7.52432 125.35 6.03513 123.744 6.29412C123.708 6.34673 123.306 6.24556 123.654 6.92298C123.884 7.37297 124.522 7.20463 124.878 8.30291C123.17 8.11595 121.558 5.79233 124.205 5.53496C116.074 2.31864 106.033 -0.718002 95.1455 0.15042C87.9043 0.72748 81.6113 3.56422 77.3003 7.81244C75.8731 9.21908 74.8757 10.5869 73.5619 12.2719C72.8237 11.5297 72.1308 10.4048 71.4774 9.65046C70.6081 8.64687 69.8038 8.09814 68.9996 7.12208L68.9986 7.12612ZM118.324 57.3133L124.127 57.4129C124.357 55.3191 127.973 55.2276 128.896 57.1239L129.225 57.7236L128.356 57.6047C128.635 57.7698 128.145 57.6241 128.834 57.7811C129.169 57.858 129.246 57.8499 129.592 57.8855C130.136 57.9422 130.415 57.9673 130.978 58.0636C131.064 56.181 129.107 54.4839 127.091 54.2451C124.442 53.9319 123.069 55.1516 122.313 56.8261C122.292 56.8738 122.267 56.9232 122.247 56.9669C122.227 57.0114 122.193 57.0729 122.175 57.1094C122.158 57.1458 122.13 57.2065 122.102 57.2534L120.526 57.221C121.66 51.9393 127.938 52.0631 130.888 54.7291C132.46 56.1495 131.808 57.1862 132.493 58.1793L133.885 58.5176C133.485 57.9389 133.931 57.8718 133.745 56.6626C133.558 55.4389 132.317 53.2456 131.019 52.7098C131.204 52.6135 130.794 52.5423 131.726 52.522C130.895 52.0494 132.154 52.5212 131.067 52.3075L122.372 51.639C122.874 51.9563 121.724 51.7459 123.085 51.9611C122.133 51.7952 120.278 53.1096 119.702 53.7716C118.74 54.8772 118.505 55.812 118.323 57.3149L118.324 57.3133ZM58.5503 7.64086C59.3072 7.94518 59.9607 8.28105 60.6092 8.62745C61.3996 9.04993 61.924 9.52987 62.5912 9.69497C64.0351 9.82608 65.3095 9.40442 66.0674 8.56594C67.3783 7.11722 66.5602 6.4309 66.4784 5.27921C66.0891 4.8883 65.2149 4.33228 64.589 4.22707C61.379 3.5974 60.8408 6.85014 62.2719 7.46362C64.3062 8.33609 63.3452 6.45518 63.8479 6.03351C64.5762 5.42165 65.9117 6.30222 65.0542 7.54941C63.9139 9.20856 60.9916 8.49553 60.1884 7.1156C58.5759 4.34523 61.7495 3.46386 61.7623 2.75488C61.2439 2.42062 61.0921 2.34535 60.4032 2.30731C59.527 2.44814 58.7001 3.51161 58.3788 4.26753C57.7835 5.66526 58.2832 6.38315 58.5493 7.63925L58.5503 7.64086ZM130.978 58.062L132.494 58.1769C131.809 57.1838 132.461 56.1479 130.889 54.7267C127.938 52.0607 121.661 51.9369 120.527 57.2186L122.102 57.251C122.131 57.2049 122.159 57.1442 122.176 57.1069C122.194 57.0705 122.228 57.009 122.248 56.9645C122.269 56.9208 122.293 56.8714 122.314 56.8237C123.07 55.1499 124.443 53.9295 127.092 54.2427C129.108 54.4814 131.064 56.1794 130.979 58.0611L130.978 58.062ZM2.55072 53.3564C4.39181 53.3257 6.25163 55.1564 6.72866 56.4862C7.65906 59.0777 5.83965 59.9607 5.71645 61.7639C6.55914 61.6489 6.74837 61.4142 7.22639 60.7684C8.38446 59.2015 8.87628 57.6039 8.08977 55.693C7.00956 53.0708 5.49568 52.3796 2.89962 51.461L3.08689 50.2996C2.78924 50.6184 2.92328 50.3052 2.78431 50.9503C2.70447 51.3234 2.73798 51.4529 2.72123 51.8098C2.6956 52.3755 2.64337 52.794 2.55072 53.3564ZM2.29742 56.0912C3.44071 56.5906 4.08727 57.4695 3.86551 58.843C3.68613 59.9542 2.92722 60.3451 1.95246 61.0565L2.0047 60.0448C1.64594 60.5045 1.74943 60.5863 1.71395 61.2394C1.68241 61.8213 1.62722 62.2268 1.58681 62.7917C3.76005 61.8918 5.55679 60.7457 5.69181 58.6673C5.77165 57.4404 5.47696 56.7023 4.75648 55.8541C4.10599 55.0884 2.92623 54.7121 2.65519 54.0776C2.44921 54.3155 2.6 54.008 2.47877 54.4296C2.43836 54.5705 2.41077 54.7437 2.39106 54.8877C2.34178 55.2624 2.33192 55.7068 2.29644 56.092L2.29742 56.0912ZM64.59 4.22788C64.1199 3.69452 62.5035 2.97178 61.7623 2.7565C61.7495 3.46548 58.5769 4.34685 60.1884 7.11722C60.9916 8.49715 63.9139 9.20937 65.0542 7.55103C65.9117 6.30383 64.5762 5.42327 63.8479 6.03513C63.3462 6.4568 64.3072 8.33771 62.2719 7.46524C60.8408 6.85176 61.379 3.59902 64.589 4.22869L64.59 4.22788ZM55.9316 6.613L58.5503 7.64086C58.2832 6.38396 57.7845 5.66607 58.3798 4.26915C58.7021 3.51323 59.528 2.44976 60.4042 2.30893C60.0642 1.986 60.4505 2.24742 59.8946 1.98681C59.7113 1.90102 59.3713 1.79905 59.1594 1.73268C58.6301 1.56677 58.3315 1.46641 57.8545 1.3013C57.4326 2.23447 56.9014 2.1155 56.244 3.76251C55.9217 4.56942 55.763 5.93801 55.9316 6.613ZM62.5922 9.69578C62.8761 10.1045 62.746 9.93454 63.157 10.3036C63.5384 10.6459 63.5571 10.6702 64.0085 10.9357C65.1351 11.1785 66.2892 10.3991 67.0757 9.71682C68.5827 8.41055 67.9972 7.78816 68.9976 7.12693L67.7991 6.15249C67.2994 5.79638 67.052 5.57543 66.4784 5.28083C66.5612 6.43171 67.3783 7.11803 66.0674 8.56756C65.3095 9.40604 64.0351 9.82851 62.5912 9.69659L62.5922 9.69578ZM124.127 57.4129L128.356 57.6039L129.225 57.7228L128.896 57.1231C127.973 55.2268 124.357 55.3191 124.127 57.4121V57.4129ZM2.00569 60.0456L1.95345 61.0573C2.92919 60.3459 3.6881 59.9542 3.86649 58.8438C4.08825 57.4695 3.44071 56.5906 2.29841 56.092L2.00569 60.0456ZM58.6833 62.5425C57.2749 62.7165 57.5785 63.3672 56.6915 63.3688C55.834 63.3712 55.8094 62.6711 56.0429 62.1394C56.6442 62.8443 55.7946 62.5465 56.7023 63.0329C56.9694 62.7424 56.9674 63.3688 56.993 62.281C57 61.9824 56.9004 61.7817 56.8048 61.5251C54.9085 61.2273 54.6257 62.9463 55.6428 63.6569C57.0463 64.6362 58.3739 63.5606 58.6843 62.5416L58.6833 62.5425ZM122.883 9.60432C121.868 9.12762 122.635 9.77429 121.506 9.58085C120.331 9.37933 120.805 7.70561 122.302 8.56351C123.103 9.02241 122.431 9.08554 123.686 9.33319C123.364 8.09167 121.025 6.86714 120.253 8.29238C119.583 9.52663 120.938 10.4015 122.063 10.2324C122.844 10.115 122.803 9.96853 122.883 9.60432ZM53.7869 66.8158L50.7148 65.3355C50.7227 65.902 50.4103 66.3375 50.6714 66.8651C50.8755 67.2771 51.2924 67.2617 51.6886 67.685C53.8924 67.8121 53.5622 67.0578 53.7869 66.8158ZM70.6307 49.5032L70.6652 49.954C72.2816 50.2534 71.9574 51.0126 73.143 51.0579C73.1923 49.9378 71.8637 50.3603 71.9041 49.1916C73.2781 48.7473 72.8641 50.0082 74.4273 50.0762C74.3267 49.3931 73.349 48.6825 72.8355 48.5142C71.3 48.0099 71.4212 48.9925 70.6307 49.504V49.5032ZM76.6872 47.721C76.1925 47.7348 74.7811 48.6064 74.4686 47.6619C74.2232 46.9198 74.5721 47.1051 74.6717 47.0072C75.0275 47.8707 74.4874 47.4418 75.2985 47.7777C75.3941 47.6231 75.4217 47.6474 75.4828 47.335C75.5893 46.7919 75.4749 46.6227 75.2985 46.2739C73.5274 46.0643 73.1637 47.475 74.1217 48.3126C74.994 49.075 76.702 48.9164 76.6872 47.7202V47.721ZM125.219 6.07398C124.99 5.85222 125.193 5.96472 124.855 5.78586C124.654 5.67983 124.474 5.63451 124.205 5.54063C121.558 5.798 123.171 8.12161 124.878 8.30857C124.522 7.2103 123.885 7.37864 123.654 6.92865C123.306 6.25123 123.709 6.35239 123.744 6.29979C125.35 6.0408 124.609 7.52998 126.196 7.13017C126.047 6.56282 126.184 6.83071 125.732 6.46085L125.219 6.07641V6.07398Z" fill="#FF6600"/>
</svg>
