<svg width="40" height="40" viewBox="0 0 40 40" fill="none" xmlns="http://www.w3.org/2000/svg">
<path d="M19.9999 0C16.4916 0 13.5703 2.62143 13.08 6H6.23816C6.153 5.98543 6.06674 5.97824 5.98035 5.97852C5.9057 5.98013 5.83127 5.98731 5.75769 6H2.49988C2.30111 5.99719 2.10377 6.03391 1.91931 6.10803C1.73486 6.18215 1.56698 6.29219 1.42543 6.43176C1.28387 6.57133 1.17147 6.73764 1.09475 6.92102C1.01802 7.10441 0.978516 7.30121 0.978516 7.5C0.978516 7.69879 1.01802 7.89559 1.09475 8.07898C1.17147 8.26236 1.28387 8.42867 1.42543 8.56824C1.56698 8.70781 1.73486 8.81785 1.91931 8.89197C2.10377 8.96609 2.30111 9.00281 2.49988 9H4.63855L7.15613 35.0293C7.42721 37.8359 9.81166 40 12.6307 40H27.3671C30.1863 40 32.5707 37.8362 32.8417 35.0293L35.3612 9H37.4999C37.6986 9.00281 37.896 8.96609 38.0804 8.89197C38.2649 8.81785 38.4328 8.70781 38.5743 8.56824C38.7159 8.42867 38.8283 8.26236 38.905 8.07898C38.9817 7.89559 39.0212 7.69879 39.0212 7.5C39.0212 7.30121 38.9817 7.10441 38.905 6.92102C38.8283 6.73764 38.7159 6.57133 38.5743 6.43176C38.4328 6.29219 38.2649 6.18215 38.0804 6.10803C37.896 6.03391 37.6986 5.99719 37.4999 6H34.244C34.0849 5.97419 33.9227 5.97419 33.7635 6H26.9198C26.4295 2.62143 23.5082 0 19.9999 0ZM19.9999 3C21.879 3 23.4206 4.26816 23.8612 6H16.1386C16.5791 4.26816 18.1207 3 19.9999 3ZM7.65027 9H32.3475L29.8553 34.7402C29.7303 36.0354 28.6678 37 27.3671 37H12.6307C11.3318 37 10.2674 36.0336 10.1425 34.7402L7.65027 9ZM16.4764 13.9785C16.079 13.9847 15.7002 14.1485 15.4233 14.4337C15.1465 14.719 14.9942 15.1025 14.9999 15.5V30.5C14.9971 30.6988 15.0338 30.8961 15.1079 31.0806C15.182 31.265 15.2921 31.4329 15.4316 31.5745C15.5712 31.716 15.7375 31.8284 15.9209 31.9051C16.1043 31.9819 16.3011 32.0214 16.4999 32.0214C16.6987 32.0214 16.8955 31.9819 17.0789 31.9051C17.2622 31.8284 17.4286 31.716 17.5681 31.5745C17.7077 31.4329 17.8177 31.265 17.8918 31.0806C17.966 30.8961 18.0027 30.6988 17.9999 30.5V15.5C18.0028 15.2992 17.9653 15.0999 17.8897 14.9139C17.8142 14.7279 17.702 14.5589 17.56 14.417C17.4179 14.2752 17.2488 14.1632 17.0627 14.0879C16.8766 14.0126 16.6772 13.9754 16.4764 13.9785ZM23.4764 13.9785C23.079 13.9847 22.7002 14.1485 22.4233 14.4337C22.1465 14.719 21.9942 15.1025 21.9999 15.5V30.5C21.9971 30.6988 22.0338 30.8961 22.1079 31.0806C22.182 31.265 22.2921 31.4329 22.4316 31.5745C22.5712 31.716 22.7375 31.8284 22.9209 31.9051C23.1043 31.9819 23.3011 32.0214 23.4999 32.0214C23.6987 32.0214 23.8955 31.9819 24.0789 31.9051C24.2622 31.8284 24.4286 31.716 24.5681 31.5745C24.7077 31.4329 24.8177 31.265 24.8918 31.0806C24.966 30.8961 25.0027 30.6988 24.9999 30.5V15.5C25.0028 15.2992 24.9653 15.0999 24.8897 14.9139C24.8142 14.7279 24.702 14.5589 24.56 14.417C24.4179 14.2752 24.2488 14.1632 24.0627 14.0879C23.8766 14.0126 23.6772 13.9754 23.4764 13.9785Z" fill="#DB9259"/>
</svg>
