<svg width="722" height="218" viewBox="0 0 722 218" fill="none" xmlns="http://www.w3.org/2000/svg">
<path d="M377.409 36.2223V48.9262H359.473V102.268H343.405V48.9262H325.655V36.2223H377.409V36.2223ZM408.517 49.4888C413.688 49.4888 418.31 50.5637 422.391 52.7107C426.471 54.8605 429.678 57.958 432.012 62.0061C434.348 66.0542 435.515 70.7863 435.515 76.2054C435.515 81.6245 434.348 86.3567 432.012 90.4047C429.675 94.4528 426.468 97.5503 422.391 99.7002C418.31 101.85 413.688 102.922 408.517 102.922C403.347 102.922 398.709 101.847 394.599 99.7002C390.489 97.5503 387.267 94.4528 384.931 90.4047C382.594 86.3567 381.427 81.6245 381.427 76.2054C381.427 70.7863 382.594 66.0542 384.931 62.0061C387.267 57.958 390.489 54.8605 394.599 52.7107C398.709 50.5608 403.35 49.4888 408.517 49.4888ZM408.517 63.315C405.467 63.315 402.897 64.4195 400.809 66.6316C398.721 68.8407 397.679 72.033 397.679 76.2084C397.679 80.3808 398.721 83.5582 400.809 85.7377C402.897 87.9172 405.464 89.007 408.517 89.007C411.567 89.007 414.123 87.9172 416.178 85.7377C418.233 83.5582 419.261 80.3808 419.261 76.2084C419.261 72.0359 418.233 68.8437 416.178 66.6316C414.123 64.4195 411.57 63.315 408.517 63.315V63.315ZM476.339 49.4888C480.636 49.4888 484.483 50.5637 487.876 52.7107C491.27 54.8605 493.95 57.9432 495.91 61.9587C497.871 65.9742 498.854 70.7241 498.854 76.2054C498.854 81.6245 497.874 86.3567 495.91 90.4047C493.947 94.4528 491.27 97.5503 487.876 99.7002C484.483 101.85 480.636 102.922 476.339 102.922C472.353 102.922 468.927 102.019 466.064 100.212C463.2 98.4061 461.112 95.9453 459.803 92.833V127.119H443.827V50.1432H459.803V59.5779C461.112 56.4626 463.197 54.0047 466.064 52.1984C468.93 50.392 472.353 49.4888 476.339 49.4888V49.4888ZM471.201 63.5015C467.837 63.5015 465.083 64.6387 462.934 66.91C460.784 69.1842 459.712 72.2817 459.712 76.2054C459.712 80.0669 460.787 83.1496 462.934 85.4535C465.083 87.7573 467.837 88.9093 471.201 88.9093C474.628 88.9093 477.382 87.7869 479.469 85.5453C481.557 83.3036 482.599 80.1883 482.599 76.2024C482.599 72.2166 481.557 69.1013 479.469 66.8596C477.382 64.6179 474.628 63.4956 471.201 63.4956V63.5015ZM574.71 49.5836C581.124 49.5836 586.17 51.5617 589.845 55.515C593.52 59.4683 595.356 64.9644 595.356 72.0034V102.271H579.474V73.8719C579.474 70.5701 578.586 68.0027 576.812 66.1637C575.039 64.3277 572.625 63.4068 569.572 63.4068C566.395 63.4068 563.889 64.387 562.053 66.3503C560.217 68.3107 559.296 71.0676 559.296 74.6182V102.271H543.323V73.8719C543.323 70.5701 542.453 68.0027 540.708 66.1637C538.964 64.3277 536.566 63.4068 533.516 63.4068C530.338 63.4068 527.818 64.3722 525.949 66.3029C524.081 68.2337 523.148 71.0054 523.148 74.6182V102.271H507.172V50.1432H523.148V59.0182C524.519 56.0924 526.619 53.7856 529.453 52.1066C532.287 50.4246 535.603 49.5836 539.403 49.5836C543.388 49.5836 546.906 50.5016 549.959 52.3405C553.013 54.1765 555.316 56.8091 556.874 60.2353C558.68 56.9956 561.156 54.4134 564.301 52.4826C567.446 50.5519 570.919 49.5865 574.719 49.5865L574.71 49.5836ZM625.81 49.4888C629.795 49.4888 633.222 50.392 636.085 52.1984C638.949 54.0047 641.066 56.4656 642.437 59.5779V50.1432H658.318V102.271H642.437V92.8359C641.066 95.9512 638.949 98.409 636.085 100.215C633.222 102.022 629.795 102.925 625.81 102.925C621.513 102.925 617.666 101.85 614.272 99.7031C610.879 97.5532 608.199 94.4557 606.238 90.4077C604.275 86.3596 603.295 81.6275 603.295 76.2084C603.295 70.7271 604.275 65.9801 606.238 61.9617C608.199 57.9432 610.879 54.8605 614.272 52.7136C617.666 50.5637 621.513 49.4918 625.81 49.4918V49.4888ZM630.947 63.5015C627.521 63.5015 624.767 64.6239 622.679 66.8656C620.592 69.1072 619.549 72.2225 619.549 76.2084C619.549 80.1942 620.592 83.3095 622.679 85.5512C624.767 87.7929 627.521 88.9152 630.947 88.9152C634.311 88.9152 637.065 87.7633 639.215 85.4594C641.365 83.1555 642.437 80.0728 642.437 76.2113C642.437 72.2876 641.362 69.1902 639.215 66.9159C637.065 64.6416 634.311 63.5075 630.947 63.5075V63.5015ZM702.412 49.5836C708.391 49.5836 713.141 51.5765 716.659 55.5624C720.177 59.5482 721.935 65.0296 721.935 72.0034V102.271H705.962V73.8719C705.962 70.3835 705.044 67.6592 703.205 65.6988C701.369 63.7355 698.923 62.7553 695.873 62.7553C692.634 62.7553 690.066 63.7829 688.165 65.838C686.267 67.8931 685.316 70.8189 685.316 74.6182V102.271H669.34V50.1432H685.316V59.6726C686.812 56.5574 689.039 54.0995 691.997 52.2931C694.955 50.4867 698.426 49.5836 702.412 49.5836V49.5836ZM415.34 128.348C420.51 128.348 425.133 129.422 429.214 131.569C433.294 133.719 436.501 136.817 438.835 140.865C441.171 144.913 442.338 149.645 442.338 155.064C442.338 160.483 441.171 165.215 438.835 169.263C436.498 173.312 433.291 176.409 429.214 178.559C425.133 180.709 420.51 181.781 415.34 181.781C410.17 181.781 405.532 180.706 401.422 178.559C397.312 176.409 394.09 173.312 391.753 169.263C389.417 165.215 388.25 160.483 388.25 155.064C388.25 149.645 389.417 144.913 391.753 140.865C394.09 136.817 397.312 133.719 401.422 131.569C405.532 129.419 410.173 128.348 415.34 128.348ZM415.34 142.174C412.29 142.174 409.719 143.278 407.632 145.49C405.544 147.699 404.502 150.892 404.502 155.067C404.502 159.24 405.544 162.417 407.632 164.596C409.719 166.776 412.287 167.866 415.34 167.866C418.39 167.866 420.946 166.776 423.001 164.596C425.056 162.417 426.083 159.24 426.083 155.067C426.083 150.895 425.056 147.702 423.001 145.49C420.946 143.278 418.393 142.174 415.34 142.174V142.174ZM475.033 128.348C480.204 128.348 484.826 129.422 488.907 131.569C492.988 133.719 496.195 136.817 498.528 140.865C500.865 144.913 502.031 149.645 502.031 155.064C502.031 160.483 500.865 165.215 498.528 169.263C496.192 173.312 492.985 176.409 488.907 178.559C484.826 180.709 480.204 181.781 475.033 181.781C469.863 181.781 465.226 180.706 461.115 178.559C457.005 176.409 453.783 173.312 451.447 169.263C449.11 165.215 447.944 160.483 447.944 155.064C447.944 149.645 449.11 144.913 451.447 140.865C453.783 136.817 457.005 133.719 461.115 131.569C465.226 129.419 469.866 128.348 475.033 128.348ZM475.033 142.174C471.983 142.174 469.413 143.278 467.325 145.49C465.237 147.699 464.195 150.892 464.195 155.067C464.195 159.24 465.237 162.417 467.325 164.596C469.413 166.776 471.98 167.866 475.033 167.866C478.083 167.866 480.639 166.776 482.694 164.596C484.749 162.417 485.777 159.24 485.777 155.067C485.777 150.895 484.749 147.702 482.694 145.49C480.639 143.278 478.086 142.174 475.033 142.174V142.174ZM541.92 181.129L526.32 158.988V181.129H510.344V112.001H526.32V149.929L541.92 129.005H560.697L539.678 155.07L561.165 181.132H541.92V181.129ZM585.918 128.348C592.519 128.348 597.799 129.997 601.752 133.299C605.705 136.601 608.181 140.96 609.179 146.376H594.234C593.798 144.258 592.818 142.591 591.29 141.377C589.765 140.163 587.849 139.556 585.545 139.556C583.739 139.556 582.368 139.944 581.435 140.723C580.499 141.501 580.034 142.606 580.034 144.039C580.034 145.659 580.89 146.873 582.605 147.682C584.316 148.49 587.011 149.301 590.686 150.11C594.672 151.043 597.941 151.993 600.494 152.959C603.046 153.924 605.258 155.496 607.127 157.676C608.995 159.855 609.928 162.784 609.928 166.456C609.928 169.444 609.12 172.091 607.5 174.395C605.88 176.699 603.547 178.506 600.494 179.814C597.441 181.123 593.831 181.778 589.658 181.778C582.619 181.778 576.984 180.22 572.749 177.108C568.515 173.993 565.93 169.542 564.997 163.75H580.41C580.659 165.991 581.61 167.703 583.259 168.887C584.908 170.072 587.044 170.661 589.658 170.661C591.465 170.661 592.836 170.241 593.769 169.4C594.704 168.559 595.169 167.454 595.169 166.083C595.169 164.277 594.313 162.986 592.599 162.207C590.887 161.428 588.101 160.605 584.239 159.731C580.378 158.923 577.2 158.049 574.71 157.116C572.219 156.183 570.069 154.673 568.263 152.586C566.457 150.498 565.554 147.649 565.554 144.036C565.554 139.366 567.327 135.582 570.878 132.686C574.429 129.79 579.442 128.342 585.918 128.342V128.348ZM369.562 147.125C373.547 148.058 376.707 149.989 379.044 152.917C381.38 155.843 382.547 159.24 382.547 163.101C382.547 168.769 380.663 173.19 376.894 176.368C373.127 179.545 367.723 181.132 360.687 181.132H329.952V115.087H359.937C366.663 115.087 371.863 116.55 375.537 119.479C379.212 122.404 381.048 126.58 381.048 131.996C381.048 135.982 379.988 139.298 377.871 141.946C375.754 144.593 372.982 146.319 369.556 147.131L369.562 147.125ZM345.928 142.079H356.39C361.933 142.079 364.705 139.713 364.705 134.978C364.705 130.246 361.871 127.877 356.203 127.877H345.928V142.076V142.079ZM357.326 168.144C363.242 168.144 366.201 165.716 366.201 160.856C366.201 158.49 365.422 156.637 363.864 155.298C362.306 153.96 360.097 153.29 357.231 153.29H345.928V168.144H357.326V168.144Z" fill="white"/>
<path fill-rule="evenodd" clip-rule="evenodd" d="M14.756 161.345C14.756 155.624 15.677 149.598 16.1301 144.179L24.0545 142.147C26.9476 141.546 29.6927 140.942 32.657 140.45C48.1977 137.868 59.4151 137.184 74.864 140.373C82.5693 141.964 92.685 146.281 99.3183 150.249C101.761 151.712 107.764 155.189 109.508 157.567C108.235 163.03 104.868 159.027 98.9777 155.737C91.7078 151.68 75.2076 148.298 66.2497 148.298C36.2756 148.298 21.7269 159.719 14.7531 161.342L14.756 161.345ZM147.25 217.991H144.288C138.44 217.544 132.807 214.396 129.645 208.154C127.051 203.04 128.442 199.703 125.306 194.982C124.229 193.36 122.94 191.58 121.614 190.093C120.793 189.172 120.42 188.624 119.553 187.692C113.971 181.686 108.35 175.636 101.163 171.408C98.501 169.841 95.7914 168.029 92.9871 166.883C90.9112 166.036 89.0456 165.162 86.9016 164.386C65.5923 156.678 42.0087 162.364 22.3784 171.707C13.3494 176.004 6.19499 182.441 0 185.719C0 180.093 1.13713 174.807 1.37699 169.243L3.518 144.608C3.71936 143.222 4.12506 142.778 4.13394 140.761L4.50706 132.206C4.64328 130.93 5.07563 129.985 5.07859 128.505C5.08155 127.385 5.02529 128.739 5.06378 127.516L6.17722 112.594C6.15946 105.729 8.17905 95.3887 8.5729 88.2136L10.7879 63.6498C11.1107 61.488 11.3298 57.7983 11.3298 55.6099C13.9447 55.6099 15.7747 55.8498 17.8535 55.9534C20.1604 56.0689 22.0082 56.2969 24.0337 56.2969L26.1925 32.7074C26.9743 26.6072 25.7305 25.4463 29.592 23.0625C32.3046 21.3864 34.7387 19.9709 37.5342 18.3008C39.2961 17.2495 39.6308 16.8468 41.7422 15.9851C43.4301 15.2951 44.6531 14.54 46.0212 13.7434C48.8048 12.1206 51.7098 11.022 54.7333 9.75454C64.1294 5.80715 74.4524 2.61786 84.9413 1.1698C87.0823 0.873668 88.7672 0.681185 90.9852 0.69303C93.2743 0.701914 94.3048 0.239955 96.8219 0.328793L113.689 3.0354C116.082 3.71649 118.339 4.82697 120.48 5.8575C123.539 7.33221 127.892 9.86706 130.37 12.0999C131.072 12.7336 131.383 12.9113 132.073 13.5213C134.904 16.0176 137.169 18.8486 139.621 21.7329C141.241 23.637 143.033 27.9457 144.875 29.1805C145.402 27.2113 149.186 22.2926 150.563 20.4507C159.716 8.23244 174.609 9.15527e-05 191.565 9.15527e-05C214.476 9.15527e-05 224.358 4.57526 242.917 12.5026L255.44 19.2069C260.64 22.3192 262.286 21.8425 262.642 27.4482L265.718 54.9288C268.404 54.9288 270.098 54.5172 272.292 54.2951L278.419 54.2448C278.419 57.0698 278.863 59.886 279.163 62.7703C279.414 65.1659 279.799 68.3582 280.072 70.7864C280.691 76.2826 281.197 81.6662 281.789 86.9224C282.408 92.4215 283.305 98.4359 283.477 103.962C283.726 111.972 284.511 119.44 285.343 127.314C285.6 129.745 286.006 132.929 286.258 135.327C286.785 140.385 291.123 180.401 291.123 184.02C289.868 183.685 287.658 182.107 286.607 181.325C277.155 174.304 265.292 167.534 253.776 164.378C250.059 163.359 246.52 162.225 242.345 161.387C220.568 157.025 198.838 161.863 182.554 176.383L178.772 179.812C176.427 182.184 174.016 184.482 171.994 187.108C170.952 188.459 169.877 189.599 168.754 191.076C164.89 196.167 165.432 195.572 164.7 201.441C163.445 211.486 155.514 217.37 147.255 218.006L147.25 217.991ZM182.974 159.971C179.418 157.59 182.127 155.929 185.865 153.249C199.291 143.628 215.827 137.312 233.097 137.312L256.245 138.881C257.702 139.091 258.54 139.224 259.882 139.364L269.965 141.641C271.111 141.901 272.565 142.118 273.379 142.346C275.129 142.834 274.534 142.92 274.801 145.043L276.352 159.968C275.491 159.554 274.499 159.337 273.607 158.938C264.685 154.925 264.821 154.605 253.998 151.425C234.672 145.751 212.972 145.411 194.529 154.016C191.041 155.645 184.384 159.64 182.971 159.968L182.974 159.971ZM139.032 169.927C137.821 169.116 133.021 162.722 131.715 161.108C109.878 134.119 77.3959 121.045 42.2811 125.36C38.9201 125.774 34.8424 126.672 31.2326 126.672L35.5501 79.8361C35.8018 78.0475 35.9677 75.8325 36.0417 74.1475L37.7444 56.2821C38.011 52.3643 38.5351 48.5502 38.7986 44.6324C39.0592 40.768 39.8173 36.6814 39.8173 32.6037C40.762 32.1033 41.4016 31.6946 42.4144 31.0816C43.3946 30.4864 44.0964 30.1459 45.0321 29.5803C57.5258 22.029 76.0574 15.917 89.8777 14.3475C95.5575 13.7019 100.452 14.1846 105.59 15.2388C111.649 16.4826 110.758 15.7245 117.986 20.0094C121.19 21.9106 123.607 23.9242 126.124 26.6338C126.586 27.1313 126.796 27.4037 127.216 27.9457L130.797 32.9473C131.359 33.7883 131.869 34.4575 132.402 35.4643C133.024 36.64 133.42 37.2441 134.001 38.3279C135.733 41.5468 137.904 47.5582 138.292 51.2035C138.922 57.1379 138.363 61.5384 138.348 67.6238C138.339 70.8338 138.7 72.652 138.691 75.8621L139.035 169.93L139.032 169.927ZM259.189 125.641C257.394 124.779 244.868 123.835 242.004 123.598L223.239 124.365C204.42 126.704 190.277 133.151 175.417 144.519L167.439 151.304C166.344 152.257 166.101 152.855 165.204 153.874L156.441 164.68C155.402 166.071 153.225 169.501 152.073 170.268C152.073 168.242 151.715 167.167 151.727 164.777C151.736 162.832 151.73 160.883 151.73 158.938C151.73 154.724 151.378 151.505 151.386 147.608V64.8698C151.386 49.1306 149.127 48.0231 159.083 31.7124L162.802 26.85C164.943 24.6053 164.224 24.8955 167.469 22.2482C182.619 9.89076 206.253 12.2746 223.582 19.1122C226.567 20.2908 228.999 21.2265 231.918 22.4466C234.853 23.6725 237.302 24.9222 240.074 26.3081C250.021 31.2801 249.34 29.0473 250.266 39.8026C250.868 46.7823 251.836 54.2832 252.6 61.1593L255.994 93.1263C256.47 96.8279 256.82 100.378 257.134 104C257.424 107.361 257.8 111.012 258.256 114.551C258.688 117.909 259.186 121.723 259.186 125.638L259.189 125.641Z" fill="white"/>
</svg>
